# xmcd
#
# Track frame offsets:
#	150
#	15035
#	26164
#	36465
#	52399
#	68083
#	80910
#	93171
#	110978
#	122671
#	136175
#	148654
#
# Disc length: 2150 seconds
#
# Revision: 1
# Processed by: cddbd v1.4PL0 Copyright (c) Steve Scherf et al.
# Submitted via: EasyCDDAExtractor 5.0.6
#
DISCID=ac08640c
DTITLE=Goat Dirt Band - Pony Up
DYEAR=1900
DGENRE=Country
TTITLE0=Cripple Creek
TTITLE1=Cotton Eye Joe
TTITLE2=Black Eyed Suzie
TTITLE3=Grandfather's Clock
TTITLE4=Deep River Blues
TTITLE5=Walking Cane
TTITLE6=Old Slew Foot
TTITLE7=Dark Hollow
TTITLE8=Black Mountain Saturday Night
TTITLE9=John Henry
TTITLE10=Columbus Stockade
TTITLE11=Saro Jane
EXTD=
EXTT0=
EXTT1=
EXTT2=
EXTT3=
EXTT4=
EXTT5=
EXTT6=
EXTT7=
EXTT8=
EXTT9=
EXTT10=
EXTT11=
PLAYORDER=
